<?xml version="1.0" standalone="no"?><!-- Generator: Gravit.io --><svg xmlns="http://www.w3.org/2000/svg" xmlns:xlink="http://www.w3.org/1999/xlink" style="isolation:isolate" viewBox="0 0 200 200" width="200" height="200"><defs><clipPath id="_clipPath_F37dC8ajzaFv7i64sZjbZubE5dBOc6LI"><rect width="200" height="200"/></clipPath></defs><g clip-path="url(#_clipPath_F37dC8ajzaFv7i64sZjbZubE5dBOc6LI)"><rect width="200" height="200" style="fill:rgb(0,0,0)" fill-opacity="0"/><g><path d=" M 61.903 12.088 C 58.337 12.793 55.152 13.805 53.496 14.725 C 49.897 16.687 44.388 24.629 42.158 31.1 C 40.757 35.055 40.47 36.865 40.502 41.526 C 40.502 47.751 41.107 50.081 46.107 62.96 C 51.967 78.17 58.496 87.706 72.317 101.26 C 85.47 114.17 96.521 122.112 107.922 126.773 C 113.4 129.012 124.738 132.906 128.527 133.857 C 135.247 135.543 141.935 135.359 148.209 133.335 C 155.534 130.974 163.368 125.823 165.565 121.928 C 166.903 119.567 168.336 113.955 168.559 110.306 L 168.75 107.148 L 167.508 105.983 C 166.775 105.277 163.336 103.253 159.1 101.015 C 152.158 97.366 147.062 94.514 142.317 91.601 C 139.546 89.914 137.572 89.577 135.82 90.436 C 134.228 91.233 131.011 94.299 128.273 97.642 C 124.833 101.782 121.871 104.695 120.438 105.308 C 118.495 106.167 117.253 105.707 109.387 101.168 C 93.209 91.785 83.559 82.218 74.005 66.057 C 71.235 61.366 70.884 60.599 70.884 59.188 C 70.884 57.41 73.273 54.926 79.801 49.958 C 82.954 47.567 85.948 44.592 86.585 43.274 C 87.731 40.974 87.19 39.134 84.005 34.595 C 82.954 33.093 80.215 28.555 77.891 24.507 C 71.903 14.081 71.33 13.161 70.216 12.272 C 69.356 11.566 68.973 11.474 66.967 11.505 C 65.693 11.505 63.432 11.781 61.903 12.088 Z " fill="rgb(0,0,0)"/></g><path d=" M 45.92 162.141 L 42.043 162.141 L 42.043 147.863 L 45.92 147.863 L 45.92 162.141 L 45.92 162.141 Z  M 62.6 147.863 L 62.6 162.141 L 57.541 162.141 L 52.326 152.082 L 52.238 152.082 L 52.238 152.082 Q 52.424 154.455 52.424 155.705 L 52.424 155.705 L 52.424 162.141 L 49.006 162.141 L 49.006 147.863 L 54.045 147.863 L 59.24 157.785 L 59.299 157.785 L 59.299 157.785 Q 59.162 155.627 59.162 154.318 L 59.162 154.318 L 59.162 147.863 L 62.6 147.863 L 62.6 147.863 Z  M 69.484 156.779 L 69.484 162.141 L 65.686 162.141 L 65.686 147.863 L 74.123 147.863 L 74.123 150.959 L 69.484 150.959 L 69.484 153.684 L 73.762 153.684 L 73.762 156.779 L 69.484 156.779 L 69.484 156.779 Z  M 89.826 154.982 L 89.826 154.982 L 89.826 154.982 Q 89.826 158.586 88.059 160.461 L 88.059 160.461 L 88.059 160.461 Q 86.291 162.336 82.883 162.336 L 82.883 162.336 L 82.883 162.336 Q 79.523 162.336 77.731 160.451 L 77.731 160.451 L 77.731 160.451 Q 75.939 158.566 75.939 154.963 L 75.939 154.963 L 75.939 154.963 Q 75.939 151.398 77.722 149.519 L 77.722 149.519 L 77.722 149.519 Q 79.504 147.639 82.902 147.639 L 82.902 147.639 L 82.902 147.639 Q 86.311 147.639 88.068 149.504 L 88.068 149.504 L 88.068 149.504 Q 89.826 151.369 89.826 154.982 Z  M 80.002 154.982 L 80.002 154.982 L 80.002 154.982 Q 80.002 159.123 82.883 159.123 L 82.883 159.123 L 82.883 159.123 Q 84.348 159.123 85.056 158.117 L 85.056 158.117 L 85.056 158.117 Q 85.764 157.111 85.764 154.982 L 85.764 154.982 L 85.764 154.982 Q 85.764 152.844 85.046 151.823 L 85.046 151.823 L 85.046 151.823 Q 84.328 150.803 82.902 150.803 L 82.902 150.803 L 82.902 150.803 Q 80.002 150.803 80.002 154.982 Z  M 101.76 162.141 L 92.404 162.141 L 92.404 147.863 L 96.262 147.863 L 96.262 159.025 L 101.76 159.025 L 101.76 162.141 L 101.76 162.141 Z  M 107.922 162.141 L 104.045 162.141 L 104.045 147.863 L 107.922 147.863 L 107.922 162.141 L 107.922 162.141 Z  M 124.602 147.863 L 124.602 162.141 L 119.543 162.141 L 114.328 152.082 L 114.24 152.082 L 114.24 152.082 Q 114.426 154.455 114.426 155.705 L 114.426 155.705 L 114.426 162.141 L 111.008 162.141 L 111.008 147.863 L 116.047 147.863 L 121.242 157.785 L 121.301 157.785 L 121.301 157.785 Q 121.164 155.627 121.164 154.318 L 121.164 154.318 L 121.164 147.863 L 124.602 147.863 L 124.602 147.863 Z  M 135.461 154.26 L 139.885 162.141 L 135.529 162.141 L 132.707 156.682 L 131.564 157.365 L 131.564 162.141 L 127.688 162.141 L 127.688 147.863 L 131.564 147.863 L 131.564 154.064 L 131.564 154.064 Q 131.857 153.488 132.746 152.238 L 132.746 152.238 L 135.744 147.863 L 139.963 147.863 L 135.461 154.26 L 135.461 154.26 Z  M 154.406 162.141 L 150.188 162.141 L 149.484 159.465 L 144.846 159.465 L 144.123 162.141 L 139.885 162.141 L 144.543 147.805 L 149.689 147.805 L 154.406 162.141 L 154.406 162.141 Z  M 145.646 156.301 L 148.684 156.301 L 148.068 153.957 L 148.068 153.957 Q 147.854 153.176 147.546 151.936 L 147.546 151.936 L 147.546 151.936 Q 147.238 150.695 147.141 150.158 L 147.141 150.158 L 147.141 150.158 Q 147.053 150.656 146.794 151.799 L 146.794 151.799 L 146.794 151.799 Q 146.535 152.941 145.646 156.301 L 145.646 156.301 L 145.646 156.301 Z  M 155.246 160.52 L 155.246 160.52 L 155.246 160.52 Q 155.246 159.621 155.778 159.133 L 155.778 159.133 L 155.778 159.133 Q 156.311 158.645 157.326 158.645 L 157.326 158.645 L 157.326 158.645 Q 158.293 158.645 158.811 159.133 L 158.811 159.133 L 158.811 159.133 Q 159.328 159.621 159.328 160.52 L 159.328 160.52 L 159.328 160.52 Q 159.328 161.398 158.796 161.892 L 158.796 161.892 L 158.796 161.892 Q 158.264 162.385 157.326 162.385 L 157.326 162.385 L 157.326 162.385 Q 156.359 162.385 155.803 161.896 L 155.803 161.896 L 155.803 161.896 Q 155.246 161.408 155.246 160.52 Z  M 155.246 152.805 L 155.246 152.805 L 155.246 152.805 Q 155.246 151.916 155.783 151.428 L 155.783 151.428 L 155.783 151.428 Q 156.32 150.939 157.326 150.939 L 157.326 150.939 L 157.326 150.939 Q 158.293 150.939 158.811 151.428 L 158.811 151.428 L 158.811 151.428 Q 159.328 151.916 159.328 152.805 L 159.328 152.805 L 159.328 152.805 Q 159.328 153.684 158.801 154.182 L 158.801 154.182 L 158.801 154.182 Q 158.273 154.68 157.326 154.68 L 157.326 154.68 L 157.326 154.68 Q 156.33 154.68 155.788 154.182 L 155.788 154.182 L 155.788 154.182 Q 155.246 153.684 155.246 152.805 Z " fill-rule="evenodd" fill="rgb(0,0,0)"/><path d=" M 137.584 183.602 L 137.584 186.141 L 127.604 186.141 L 127.604 184.041 L 131.188 180.418 L 131.188 180.418 Q 132.779 178.787 133.268 178.157 L 133.268 178.157 L 133.268 178.157 Q 133.756 177.527 133.971 176.99 L 133.971 176.99 L 133.971 176.99 Q 134.186 176.453 134.186 175.877 L 134.186 175.877 L 134.186 175.877 Q 134.186 175.018 133.712 174.598 L 133.712 174.598 L 133.712 174.598 Q 133.238 174.178 132.447 174.178 L 132.447 174.178 L 132.447 174.178 Q 131.617 174.178 130.836 174.559 L 130.836 174.559 L 130.836 174.559 Q 130.055 174.939 129.205 175.643 L 129.205 175.643 L 127.564 173.699 L 127.564 173.699 Q 128.619 172.801 129.313 172.43 L 129.313 172.43 L 129.313 172.43 Q 130.006 172.059 130.826 171.858 L 130.826 171.858 L 130.826 171.858 Q 131.646 171.658 132.662 171.658 L 132.662 171.658 L 132.662 171.658 Q 134 171.658 135.025 172.146 L 135.025 172.146 L 135.025 172.146 Q 136.051 172.635 136.617 173.514 L 136.617 173.514 L 136.617 173.514 Q 137.184 174.393 137.184 175.525 L 137.184 175.525 L 137.184 175.525 Q 137.184 176.512 136.837 177.376 L 136.837 177.376 L 136.837 177.376 Q 136.49 178.24 135.763 179.148 L 135.763 179.148 L 135.763 179.148 Q 135.035 180.057 133.199 181.736 L 133.199 181.736 L 131.363 183.465 L 131.363 183.602 L 137.584 183.602 L 137.584 183.602 Z  M 148.443 175.057 L 148.443 175.057 L 148.443 175.057 Q 148.443 176.395 147.633 177.332 L 147.633 177.332 L 147.633 177.332 Q 146.822 178.27 145.357 178.621 L 145.357 178.621 L 145.357 178.68 L 145.357 178.68 Q 147.086 178.895 147.975 179.729 L 147.975 179.729 L 147.975 179.729 Q 148.863 180.564 148.863 181.98 L 148.863 181.98 L 148.863 181.98 Q 148.863 184.041 147.369 185.188 L 147.369 185.188 L 147.369 185.188 Q 145.875 186.336 143.102 186.336 L 143.102 186.336 L 143.102 186.336 Q 140.777 186.336 138.98 185.564 L 138.98 185.564 L 138.98 182.996 L 138.98 182.996 Q 139.811 183.416 140.807 183.68 L 140.807 183.68 L 140.807 183.68 Q 141.803 183.943 142.779 183.943 L 142.779 183.943 L 142.779 183.943 Q 144.273 183.943 144.986 183.436 L 144.986 183.436 L 144.986 183.436 Q 145.699 182.928 145.699 181.805 L 145.699 181.805 L 145.699 181.805 Q 145.699 180.799 144.879 180.379 L 144.879 180.379 L 144.879 180.379 Q 144.059 179.959 142.262 179.959 L 142.262 179.959 L 141.178 179.959 L 141.178 177.645 L 142.281 177.645 L 142.281 177.645 Q 143.941 177.645 144.708 177.21 L 144.708 177.21 L 144.708 177.21 Q 145.475 176.775 145.475 175.721 L 145.475 175.721 L 145.475 175.721 Q 145.475 174.1 143.443 174.1 L 143.443 174.1 L 143.443 174.1 Q 142.74 174.1 142.013 174.334 L 142.013 174.334 L 142.013 174.334 Q 141.285 174.568 140.396 175.145 L 140.396 175.145 L 139 173.064 L 139 173.064 Q 140.953 171.658 143.658 171.658 L 143.658 171.658 L 143.658 171.658 Q 145.875 171.658 147.159 172.557 L 147.159 172.557 L 147.159 172.557 Q 148.443 173.455 148.443 175.057 Z  M 160.738 180.838 L 160.738 183.182 L 159.02 183.182 L 159.02 186.141 L 156.07 186.141 L 156.07 183.182 L 149.977 183.182 L 149.977 181.082 L 156.236 171.863 L 159.02 171.863 L 159.02 180.838 L 160.738 180.838 L 160.738 180.838 Z  M 152.633 180.838 L 156.07 180.838 L 156.07 178.416 L 156.07 178.416 Q 156.07 177.811 156.119 176.658 L 156.119 176.658 L 156.119 176.658 Q 156.168 175.506 156.197 175.32 L 156.197 175.32 L 156.119 175.32 L 156.119 175.32 Q 155.758 176.121 155.25 176.883 L 155.25 176.883 L 152.633 180.838 L 152.633 180.838 Z  M 98.141 183.602 L 98.141 186.141 L 88.16 186.141 L 88.16 184.041 L 91.744 180.418 L 91.744 180.418 Q 93.336 178.787 93.824 178.157 L 93.824 178.157 L 93.824 178.157 Q 94.313 177.527 94.527 176.99 L 94.527 176.99 L 94.527 176.99 Q 94.742 176.453 94.742 175.877 L 94.742 175.877 L 94.742 175.877 Q 94.742 175.018 94.269 174.598 L 94.269 174.598 L 94.269 174.598 Q 93.795 174.178 93.004 174.178 L 93.004 174.178 L 93.004 174.178 Q 92.174 174.178 91.393 174.559 L 91.393 174.559 L 91.393 174.559 Q 90.611 174.939 89.762 175.643 L 89.762 175.643 L 88.121 173.699 L 88.121 173.699 Q 89.176 172.801 89.869 172.43 L 89.869 172.43 L 89.869 172.43 Q 90.563 172.059 91.383 171.858 L 91.383 171.858 L 91.383 171.858 Q 92.203 171.658 93.219 171.658 L 93.219 171.658 L 93.219 171.658 Q 94.557 171.658 95.582 172.146 L 95.582 172.146 L 95.582 172.146 Q 96.607 172.635 97.174 173.514 L 97.174 173.514 L 97.174 173.514 Q 97.74 174.393 97.74 175.525 L 97.74 175.525 L 97.74 175.525 Q 97.74 176.512 97.394 177.376 L 97.394 177.376 L 97.394 177.376 Q 97.047 178.24 96.319 179.148 L 96.319 179.148 L 96.319 179.148 Q 95.592 180.057 93.756 181.736 L 93.756 181.736 L 91.92 183.465 L 91.92 183.602 L 98.141 183.602 L 98.141 183.602 Z  M 109.557 183.602 L 109.557 186.141 L 99.576 186.141 L 99.576 184.041 L 103.16 180.418 L 103.16 180.418 Q 104.752 178.787 105.24 178.157 L 105.24 178.157 L 105.24 178.157 Q 105.729 177.527 105.943 176.99 L 105.943 176.99 L 105.943 176.99 Q 106.158 176.453 106.158 175.877 L 106.158 175.877 L 106.158 175.877 Q 106.158 175.018 105.685 174.598 L 105.685 174.598 L 105.685 174.598 Q 105.211 174.178 104.42 174.178 L 104.42 174.178 L 104.42 174.178 Q 103.59 174.178 102.809 174.559 L 102.809 174.559 L 102.809 174.559 Q 102.027 174.939 101.178 175.643 L 101.178 175.643 L 99.537 173.699 L 99.537 173.699 Q 100.592 172.801 101.285 172.43 L 101.285 172.43 L 101.285 172.43 Q 101.979 172.059 102.799 171.858 L 102.799 171.858 L 102.799 171.858 Q 103.619 171.658 104.635 171.658 L 104.635 171.658 L 104.635 171.658 Q 105.973 171.658 106.998 172.146 L 106.998 172.146 L 106.998 172.146 Q 108.023 172.635 108.59 173.514 L 108.59 173.514 L 108.59 173.514 Q 109.156 174.393 109.156 175.525 L 109.156 175.525 L 109.156 175.525 Q 109.156 176.512 108.81 177.376 L 108.81 177.376 L 108.81 177.376 Q 108.463 178.24 107.735 179.148 L 107.735 179.148 L 107.735 179.148 Q 107.008 180.057 105.172 181.736 L 105.172 181.736 L 103.336 183.465 L 103.336 183.602 L 109.557 183.602 L 109.557 183.602 Z  M 118.453 171.863 L 118.453 186.141 L 115.436 186.141 L 115.436 177.879 L 115.465 176.521 L 115.514 175.037 L 115.514 175.037 Q 114.762 175.789 114.469 176.023 L 114.469 176.023 L 112.828 177.342 L 111.373 175.525 L 115.973 171.863 L 118.453 171.863 L 118.453 171.863 Z  M 47.203 179.002 L 47.203 179.002 L 47.203 179.002 Q 47.203 182.742 45.978 184.539 L 45.978 184.539 L 45.978 184.539 Q 44.752 186.336 42.203 186.336 L 42.203 186.336 L 42.203 186.336 Q 39.732 186.336 38.478 184.48 L 38.478 184.48 L 38.478 184.48 Q 37.223 182.625 37.223 179.002 L 37.223 179.002 L 37.223 179.002 Q 37.223 175.223 38.443 173.431 L 38.443 173.431 L 38.443 173.431 Q 39.664 171.639 42.203 171.639 L 42.203 171.639 L 42.203 171.639 Q 44.674 171.639 45.938 173.514 L 45.938 173.514 L 45.938 173.514 Q 47.203 175.389 47.203 179.002 Z  M 40.221 179.002 L 40.221 179.002 L 40.221 179.002 Q 40.221 181.629 40.675 182.767 L 40.675 182.767 L 40.675 182.767 Q 41.129 183.904 42.203 183.904 L 42.203 183.904 L 42.203 183.904 Q 43.258 183.904 43.727 182.752 L 43.727 182.752 L 43.727 182.752 Q 44.195 181.6 44.195 179.002 L 44.195 179.002 L 44.195 179.002 Q 44.195 176.375 43.722 175.228 L 43.722 175.228 L 43.722 175.228 Q 43.248 174.08 42.203 174.08 L 42.203 174.08 L 42.203 174.08 Q 41.139 174.08 40.68 175.228 L 40.68 175.228 L 40.68 175.228 Q 40.221 176.375 40.221 179.002 Z  M 53.639 171.678 L 53.639 171.678 L 53.639 171.678 Q 55.689 171.678 56.944 172.61 L 56.944 172.61 L 56.944 172.61 Q 58.199 173.543 58.199 175.125 L 58.199 175.125 L 58.199 175.125 Q 58.199 176.219 57.594 177.073 L 57.594 177.073 L 57.594 177.073 Q 56.988 177.928 55.641 178.602 L 55.641 178.602 L 55.641 178.602 Q 57.242 179.461 57.94 180.394 L 57.94 180.394 L 57.94 180.394 Q 58.639 181.326 58.639 182.439 L 58.639 182.439 L 58.639 182.439 Q 58.639 184.197 57.262 185.267 L 57.262 185.267 L 57.262 185.267 Q 55.885 186.336 53.639 186.336 L 53.639 186.336 L 53.639 186.336 Q 51.295 186.336 49.957 185.34 L 49.957 185.34 L 49.957 185.34 Q 48.619 184.344 48.619 182.518 L 48.619 182.518 L 48.619 182.518 Q 48.619 181.297 49.269 180.35 L 49.269 180.35 L 49.269 180.35 Q 49.918 179.402 51.354 178.68 L 51.354 178.68 L 51.354 178.68 Q 50.133 177.908 49.596 177.029 L 49.596 177.029 L 49.596 177.029 Q 49.059 176.15 49.059 175.105 L 49.059 175.105 L 49.059 175.105 Q 49.059 173.572 50.328 172.625 L 50.328 172.625 L 50.328 172.625 Q 51.598 171.678 53.639 171.678 Z  M 51.412 182.342 L 51.412 182.342 L 51.412 182.342 Q 51.412 183.182 51.998 183.65 L 51.998 183.65 L 51.998 183.65 Q 52.584 184.119 53.6 184.119 L 53.6 184.119 L 53.6 184.119 Q 54.723 184.119 55.279 183.636 L 55.279 183.636 L 55.279 183.636 Q 55.836 183.152 55.836 182.361 L 55.836 182.361 L 55.836 182.361 Q 55.836 181.707 55.284 181.136 L 55.284 181.136 L 55.284 181.136 Q 54.732 180.564 53.492 179.92 L 53.492 179.92 L 53.492 179.92 Q 51.412 180.877 51.412 182.342 Z  M 53.619 173.885 L 53.619 173.885 L 53.619 173.885 Q 52.848 173.885 52.374 174.28 L 52.374 174.28 L 52.374 174.28 Q 51.9 174.676 51.9 175.34 L 51.9 175.34 L 51.9 175.34 Q 51.9 175.926 52.276 176.39 L 52.276 176.39 L 52.276 176.39 Q 52.652 176.854 53.639 177.342 L 53.639 177.342 L 53.639 177.342 Q 54.596 176.893 54.977 176.424 L 54.977 176.424 L 54.977 176.424 Q 55.357 175.955 55.357 175.34 L 55.357 175.34 L 55.357 175.34 Q 55.357 174.666 54.869 174.275 L 54.869 174.275 L 54.869 174.275 Q 54.381 173.885 53.619 173.885 Z  M 70.035 179.002 L 70.035 179.002 L 70.035 179.002 Q 70.035 182.742 68.81 184.539 L 68.81 184.539 L 68.81 184.539 Q 67.584 186.336 65.035 186.336 L 65.035 186.336 L 65.035 186.336 Q 62.564 186.336 61.31 184.48 L 61.31 184.48 L 61.31 184.48 Q 60.055 182.625 60.055 179.002 L 60.055 179.002 L 60.055 179.002 Q 60.055 175.223 61.275 173.431 L 61.275 173.431 L 61.275 173.431 Q 62.496 171.639 65.035 171.639 L 65.035 171.639 L 65.035 171.639 Q 67.506 171.639 68.771 173.514 L 68.771 173.514 L 68.771 173.514 Q 70.035 175.389 70.035 179.002 Z  M 63.053 179.002 L 63.053 179.002 L 63.053 179.002 Q 63.053 181.629 63.507 182.767 L 63.507 182.767 L 63.507 182.767 Q 63.961 183.904 65.035 183.904 L 65.035 183.904 L 65.035 183.904 Q 66.09 183.904 66.559 182.752 L 66.559 182.752 L 66.559 182.752 Q 67.027 181.6 67.027 179.002 L 67.027 179.002 L 67.027 179.002 Q 67.027 176.375 66.554 175.228 L 66.554 175.228 L 66.554 175.228 Q 66.08 174.08 65.035 174.08 L 65.035 174.08 L 65.035 174.08 Q 63.971 174.08 63.512 175.228 L 63.512 175.228 L 63.512 175.228 Q 63.053 176.375 63.053 179.002 Z  M 81.451 179.002 L 81.451 179.002 L 81.451 179.002 Q 81.451 182.742 80.226 184.539 L 80.226 184.539 L 80.226 184.539 Q 79 186.336 76.451 186.336 L 76.451 186.336 L 76.451 186.336 Q 73.98 186.336 72.726 184.48 L 72.726 184.48 L 72.726 184.48 Q 71.471 182.625 71.471 179.002 L 71.471 179.002 L 71.471 179.002 Q 71.471 175.223 72.691 173.431 L 72.691 173.431 L 72.691 173.431 Q 73.912 171.639 76.451 171.639 L 76.451 171.639 L 76.451 171.639 Q 78.922 171.639 80.187 173.514 L 80.187 173.514 L 80.187 173.514 Q 81.451 175.389 81.451 179.002 Z  M 74.469 179.002 L 74.469 179.002 L 74.469 179.002 Q 74.469 181.629 74.923 182.767 L 74.923 182.767 L 74.923 182.767 Q 75.377 183.904 76.451 183.904 L 76.451 183.904 L 76.451 183.904 Q 77.506 183.904 77.975 182.752 L 77.975 182.752 L 77.975 182.752 Q 78.443 181.6 78.443 179.002 L 78.443 179.002 L 78.443 179.002 Q 78.443 176.375 77.97 175.228 L 77.97 175.228 L 77.97 175.228 Q 77.496 174.08 76.451 174.08 L 76.451 174.08 L 76.451 174.08 Q 75.387 174.08 74.928 175.228 L 74.928 175.228 L 74.928 175.228 Q 74.469 176.375 74.469 179.002 Z " fill-rule="evenodd" fill="rgb(0,0,0)"/></g></svg>